# xmcd
#
# Track frame offsets:
#	208
#	15641
#	32843
#	53298
#	68442
#	81890
#	99227
#	111613
#	128302
#	145989
#
# Disc length: 2162 seconds
#
# Revision: 0
# Processed by: cddbd v1.4PL0 Copyright (c) Steve Scherf et al.
# Submitted via: dBpowerAMP V4.0
#
DISCID=7408700a
DTITLE=King Johnson - King Johnson
DYEAR=1998
DGENRE=Blues
TTITLE0=Like This
TTITLE1=Finest Flower
TTITLE2=Wise To The Likes Of Me
TTITLE3=Sell Me
TTITLE4=Workin' Sucks
TTITLE5=Glad
TTITLE6=A Few Too Many Times
TTITLE7=Whole Round World
TTITLE8=Unknown River
TTITLE9=Thruster
EXTD=
EXTT0=
EXTT1=
EXTT2=
EXTT3=
EXTT4=
EXTT5=
EXTT6=
EXTT7=
EXTT8=
EXTT9=
PLAYORDER=
